<svg width="32" height="32" viewBox="0 0 32 32" fill="none" xmlns="http://www.w3.org/2000/svg">
<g clip-path="url(#clip0_1_971)">
<path d="M31.9308 24.7942C31.8403 24.5214 31.2644 24.1197 30.2036 23.5899C29.9163 23.4228 29.5068 23.1959 28.977 22.908C28.4466 22.6201 27.9653 22.3547 27.5338 22.1123C27.1014 21.8699 26.6963 21.6351 26.3178 21.4081C26.2573 21.3627 26.0679 21.2303 25.7497 21.0101C25.4312 20.7906 25.1626 20.6276 24.9425 20.5213C24.7229 20.4157 24.5069 20.3625 24.2947 20.3625C23.9918 20.3625 23.6133 20.5786 23.159 21.0101C22.7046 21.4422 22.2878 21.9115 21.9092 22.4195C21.5306 22.9273 21.129 23.3967 20.7052 23.8285C20.2807 24.2605 19.932 24.4763 19.6596 24.4763C19.5228 24.4763 19.3523 24.4382 19.148 24.3629C18.9437 24.2872 18.7883 24.2224 18.6817 24.1701C18.576 24.1167 18.3945 24.0109 18.1368 23.8513C17.8786 23.6922 17.735 23.6051 17.7047 23.5899C15.6291 22.4381 13.8489 21.1199 12.3639 19.6355C10.8794 18.1503 9.56106 16.3703 8.40961 14.2944C8.39449 14.2641 8.30716 14.1201 8.1482 13.8627C7.98899 13.605 7.88288 13.4234 7.82987 13.3171C7.77685 13.2111 7.71245 13.0557 7.63683 12.8512C7.56121 12.6467 7.52324 12.4764 7.52324 12.3399C7.52324 12.0673 7.7392 11.7187 8.17104 11.2944C8.60281 10.8703 9.07262 10.4687 9.58 10.0902C10.0878 9.71165 10.5571 9.29485 10.989 8.84048C11.4208 8.38587 11.6367 8.00728 11.6367 7.70432C11.6367 7.49234 11.5837 7.27622 11.4777 7.05659C11.3717 6.83649 11.2088 6.56791 10.989 6.24958C10.7692 5.93141 10.6366 5.7422 10.5911 5.6813C10.3641 5.30279 10.1295 4.89754 9.88679 4.46569C9.64408 4.03393 9.37917 3.55265 9.09117 3.02242C8.8034 2.49243 8.5763 2.08319 8.40945 1.79535C7.87946 0.734969 7.47802 0.158966 7.20523 0.0683785C7.09912 0.0229255 6.93991 0 6.72801 0C6.31869 0 5.78472 0.0756223 5.12569 0.227344C4.46643 0.378828 3.94766 0.537714 3.56883 0.70464C2.81125 1.02265 2.0083 1.94684 1.15974 3.47687C0.387043 4.9008 0.000732422 6.31016 0.000732422 7.70392C0.000732422 8.11268 0.02724 8.51037 0.0802552 8.89708C0.13327 9.28339 0.227997 9.71905 0.364515 10.204C0.500795 10.6888 0.610726 11.0489 0.69383 11.2834C0.777015 11.5181 0.932319 11.9384 1.15966 12.5447C1.38669 13.1508 1.52321 13.5218 1.56866 13.6582C2.09889 15.1431 2.72767 16.4687 3.45484 17.6354C4.65126 19.5747 6.28399 21.5789 8.35206 23.6471C10.4202 25.7152 12.424 27.3478 14.3634 28.5447C15.53 29.2718 16.8561 29.9005 18.3407 30.4311C18.4772 30.4763 18.8482 30.6125 19.454 30.8404C20.0601 31.0675 20.4807 31.2228 20.7153 31.3062C20.9501 31.3896 21.3103 31.4996 21.7947 31.6361C22.2801 31.7727 22.7154 31.8674 23.1017 31.9208C23.4882 31.9731 23.886 32.0001 24.2948 32.0001C25.6885 32.0001 27.0979 31.6135 28.5221 30.8409C30.052 29.9927 30.9759 29.1896 31.2941 28.4314C31.4614 28.053 31.6199 27.5341 31.7714 26.8748C31.9234 26.2159 31.9988 25.682 31.9988 25.2727C31.9993 25.0599 31.9765 24.9011 31.9308 24.7942Z" fill="#78C081"/>
</g>
<defs>
<clipPath id="clip0_1_971">
<rect width="32" height="32" fill="white"/>
</clipPath>
</defs>
</svg>
